<?xml version="1.0" standalone="no"?><!DOCTYPE svg PUBLIC "-//W3C//DTD SVG 1.1//EN" "http://www.w3.org/Graphics/SVG/1.1/DTD/svg11.dtd"><svg t="1512196605381" class="icon" style="" viewBox="0 0 1024 1024" version="1.1" xmlns="http://www.w3.org/2000/svg" p-id="1971" xmlns:xlink="http://www.w3.org/1999/xlink" width="200" height="200"><defs><style type="text/css"></style></defs><path d="M887.68 429.312h-82.944V258.88C804.736 116.096 673.536 0 512.064 0 350.528 0 219.136 116.096 219.136 258.88v170.432H136.32c-39.936 0-72.32 28.608-72.32 64V960c0 35.392 32.384 64 72.32 64H887.68c39.936 0 72.256-28.608 72.256-64V493.248c0-35.328-32.384-63.936-72.32-63.936z m-335.04 309.504v101.888c0 4.544-4.224 8.384-9.472 8.384h-62.208c-5.248 0-9.536-3.84-9.536-8.32v-101.952c-29.184-13.248-49.408-39.68-49.408-70.72 0-43.904 40.32-79.616 89.92-79.616 49.792 0 90.112 35.712 90.112 79.616 0 31.04-20.224 57.472-49.408 70.72z m139.776-309.504H331.648V263.104c0-87.936 81.024-159.552 180.48-159.552 99.456 0 180.288 71.616 180.288 159.552v166.208z" p-id="1972" fill="#cccccc"></path></svg>